<?xml version="1.0" encoding="UTF-8" standalone="no" ?>
<!DOCTYPE svg PUBLIC "-//W3C//DTD SVG 1.1//EN" "http://www.w3.org/Graphics/SVG/1.1/DTD/svg11.dtd">
<svg xmlns="http://www.w3.org/2000/svg" xmlns:xlink="http://www.w3.org/1999/xlink" version="1.1" width="500" height="500" viewBox="0 0 500 500" xml:space="preserve">
<desc>Created with Fabric.js 4.6.0</desc>
<defs>
</defs>
<g transform="matrix(1 0 0 -1 250 242.88)" id="IQC3Jc_OuNf7s1t3z1Hni"  >
<path style="stroke: none; stroke-width: 1; stroke-dasharray: none; stroke-linecap: butt; stroke-dashoffset: 0; stroke-linejoin: miter; stroke-miterlimit: 4; fill: rgb(255,255,255); fill-rule: nonzero; opacity: 1;" vector-effect="non-scaling-stroke"  transform=" translate(-48, -48)" d="M 44 12 L 44 74.344 L 22.828 53.172 C 21.266 51.61 18.733999999999998 51.61 17.172 53.172 C 15.610000000000001 54.733999999999995 15.610000000000001 57.266999999999996 17.172 58.82899999999999 L 45.172 86.829 C 46.733999999999995 88.39099999999999 49.266999999999996 88.39099999999999 50.827999999999996 86.829 L 78.828 58.82899999999999 C 79.609 58.048 80 57.024 80 56 C 80 54.977 79.609 53.953 78.828 53.172 C 77.266 51.61 74.733 51.61 73.172 53.172 L 52 74.344 L 52 12 C 52 9.792 50.209 8 48 8 C 45.791 8 44 9.791 44 12 z" stroke-linecap="round" />
</g>
<g transform="matrix(1 0 0 -1 243.91 177.45)" id="nTFZGYK7CgGxfu_ixfNJK"  >
<path style="stroke: rgb(145,137,39); stroke-width: 0; stroke-dasharray: none; stroke-linecap: butt; stroke-dashoffset: 0; stroke-linejoin: miter; stroke-miterlimit: 4; fill: rgb(255,255,255); fill-rule: nonzero; opacity: 1;" vector-effect="non-scaling-stroke"  transform=" translate(-44, -151.5)" d="M 0 0 L 88 0 L 88 303 L 0 303 z" stroke-linecap="round" />
</g>
<g transform="matrix(1 0 0 -1 175.82 397.94)" id="mv3VOyHlp60VXGfoqyKwQ"  >
<path style="stroke: rgb(255,255,255); stroke-width: 1; stroke-dasharray: none; stroke-linecap: butt; stroke-dashoffset: 0; stroke-linejoin: miter; stroke-miterlimit: 4; fill: rgb(255,255,255); fill-rule: nonzero; opacity: 1;" vector-effect="non-scaling-stroke"  transform=" translate(0, 0)" d="M -67.58856 68.49372 L 67.58857 68.49372 L 67.58857 -68.49373 z" stroke-linecap="round" />
</g>
<g transform="matrix(-1 0 0 -1 312 397.94)" id="JcmlaljCAcQ4ulJaO8aI8"  >
<path style="stroke: rgb(255,255,255); stroke-width: 1; stroke-dasharray: none; stroke-linecap: butt; stroke-dashoffset: 0; stroke-linejoin: miter; stroke-miterlimit: 4; fill: rgb(255,255,255); fill-rule: nonzero; opacity: 1;" vector-effect="non-scaling-stroke"  transform=" translate(0, 0)" d="M -67.58856 68.49372 L 67.58857 68.49372 L 67.58857 -68.49373 z" stroke-linecap="round" />
</g>
</svg>